<?xml version="1.0" standalone="no"?>
<!DOCTYPE svg PUBLIC "-//W3C//DTD SVG 20010904//EN"
 "http://www.w3.org/TR/2001/REC-SVG-20010904/DTD/svg10.dtd">
<svg version="1.0" xmlns="http://www.w3.org/2000/svg"
 width="577.000000pt" height="433.000000pt" viewBox="0 0 577.000000 433.000000"
 preserveAspectRatio="xMidYMid meet">

<g transform="translate(0.000000,433.000000) scale(0.100000,-0.100000)"
fill="#000000" stroke="none">
<path d="M1036 2451 l-170 -99 -47 -93 c-27 -52 -48 -103 -48 -114 -1 -14 13
-28 44 -45 42 -23 45 -27 45 -65 l0 -41 187 -108 188 -109 50 27 c153 81 241
142 273 190 29 43 32 56 32 122 l0 73 35 -6 c46 -7 46 11 2 92 -32 59 -33 60
-217 167 -102 59 -189 108 -195 108 -5 0 -86 -45 -179 -99z m164 -79 l0 -118
-35 -17 -35 -17 -97 56 c-54 31 -99 58 -101 59 -2 2 259 155 266 155 1 0 2
-53 2 -118z m177 36 c78 -46 143 -85 143 -88 0 -3 -28 -20 -62 -38 -35 -18
-80 -42 -100 -53 -35 -19 -38 -19 -70 -3 -67 33 -68 37 -68 156 0 59 3 108 7
108 3 0 71 -37 150 -82z m-331 -193 c81 -47 150 -88 153 -90 7 -8 -61 -145
-73 -145 -9 0 -306 169 -306 175 0 7 71 145 74 145 3 0 71 -38 152 -85z m504
-35 c0 -63 -5 -113 -14 -134 -16 -39 -77 -91 -161 -137 -33 -18 -72 -41 -87
-51 l-28 -19 0 139 0 140 58 33 c101 57 116 66 167 97 28 17 53 31 58 31 4 1
7 -44 7 -99z m-526 -200 c57 -33 110 -60 120 -60 10 0 26 21 44 58 l27 57 3
-47 c2 -26 2 -70 0 -97 l-3 -50 -85 50 c-47 27 -92 53 -100 59 -8 5 -39 22
-67 37 -29 15 -53 33 -53 40 0 7 3 13 6 13 3 0 52 -27 108 -60z"/>
<path d="M1740 2205 l0 -305 35 0 35 0 0 258 1 257 48 -130 c27 -71 71 -186
98 -255 48 -121 50 -125 81 -128 25 -3 34 1 41 20 10 23 69 176 134 343 19 50
38 104 43 120 6 20 10 -58 12 -227 l2 -258 35 0 35 0 0 305 0 305 -54 0 c-42
0 -55 -4 -59 -17 -7 -23 -95 -251 -107 -278 -5 -11 -24 -62 -42 -112 -18 -51
-35 -93 -38 -93 -3 0 -17 35 -32 78 -14 42 -57 155 -95 250 l-68 172 -52 0
-53 0 0 -305z"/>
<path d="M3190 2205 l0 -305 35 0 35 0 0 158 c0 136 3 161 19 188 39 63 132
69 175 11 19 -26 21 -45 24 -193 l4 -164 34 0 35 0 -2 173 c-1 194 -9 224 -68
264 -59 40 -155 28 -198 -25 l-23 -27 0 113 0 112 -35 0 -35 0 0 -305z"/>
<path d="M3670 2204 l0 -305 33 3 c28 3 33 7 37 38 l5 35 18 -26 c23 -35 58
-49 119 -49 118 0 182 83 181 235 0 147 -67 225 -191 225 -48 0 -81 -16 -114
-55 -17 -19 -17 -15 -18 93 l0 112 -35 0 -35 0 0 -306z m275 66 c31 -29 47
-78 47 -140 0 -101 -40 -159 -114 -167 -24 -2 -54 2 -68 9 -92 49 -94 262 -2
313 37 21 107 14 137 -15z"/>
<path d="M2973 2462 c-32 -3 -33 -4 -33 -53 l0 -49 -35 0 c-32 0 -35 -3 -35
-29 0 -25 5 -30 35 -35 l35 -7 0 -154 c0 -89 5 -164 11 -178 16 -34 60 -57
113 -57 41 0 46 2 46 23 0 32 -11 42 -49 43 -18 1 -37 7 -42 15 -5 8 -8 82 -6
164 l2 150 43 3 c39 3 42 5 42 33 0 28 -2 29 -45 29 l-44 0 -3 53 -3 52 -32
-3z"/>
<path d="M2544 2341 c-22 -10 -51 -31 -63 -47 -21 -27 -21 -29 -5 -41 23 -17
51 -16 61 1 13 24 65 46 106 46 31 0 45 -7 68 -31 57 -61 37 -84 -92 -105
-108 -18 -143 -33 -164 -74 -30 -58 -7 -137 49 -171 44 -27 138 -26 182 2 19
11 34 25 34 30 0 5 5 9 10 9 6 0 10 -13 10 -30 0 -28 3 -30 35 -30 l35 0 0
164 c0 168 -8 214 -42 252 -40 45 -153 57 -224 25z m196 -249 c0 -80 -52 -132
-134 -132 -36 0 -52 5 -71 25 -29 29 -30 38 -9 75 18 30 67 49 125 51 19 0 43
4 54 9 32 14 35 12 35 -28z"/>
<path d="M4270 2349 c-89 -36 -145 -165 -120 -277 26 -116 91 -172 200 -172
49 0 73 6 106 25 109 64 132 275 41 373 -51 55 -157 79 -227 51z m134 -64 c48
-23 76 -80 76 -154 0 -34 -6 -77 -14 -96 -27 -64 -112 -93 -175 -61 -36 19
-55 49 -70 110 -10 40 -9 57 4 100 18 61 32 80 71 101 37 19 68 19 108 0z"/>
<path d="M4612 2352 c2 -4 34 -54 72 -110 37 -56 66 -108 63 -115 -2 -6 -37
-58 -76 -115 -39 -57 -71 -105 -71 -108 0 -2 17 -4 39 -4 36 0 41 4 84 68 25
37 51 80 58 95 l12 28 53 -83 c29 -46 58 -89 64 -95 11 -13 80 -19 80 -7 0 3
-34 54 -75 114 -41 60 -75 111 -75 114 0 3 34 55 76 115 l75 111 -44 0 -44 0
-49 -85 c-27 -46 -52 -85 -56 -85 -4 0 -15 15 -24 32 -9 18 -33 57 -52 85 -32
49 -38 53 -74 53 -22 0 -38 -4 -36 -8z"/>
</g>
</svg>
