<?xml version="1.0" standalone="no"?>
<!DOCTYPE svg PUBLIC "-//W3C//DTD SVG 20010904//EN"
 "http://www.w3.org/TR/2001/REC-SVG-20010904/DTD/svg10.dtd">
<svg version="1.0" xmlns="http://www.w3.org/2000/svg"
 width="101.000000pt" height="101.000000pt" viewBox="0 0 101.000000 101.000000"
 preserveAspectRatio="xMidYMid meet">

<g transform="translate(0.000000,101.000000) scale(0.100000,-0.100000)"
fill="#000000" stroke="none">
<path d="M334 740 l-170 -99 -48 -101 c-45 -93 -52 -130 -25 -130 6 0 24 -9
40 -21 23 -16 29 -28 29 -59 l0 -38 184 -106 c101 -58 188 -106 194 -106 12 0
187 100 250 143 24 16 57 50 73 75 25 40 29 56 29 118 l0 73 35 -6 c44 -7 44
0 3 78 -31 56 -40 65 -138 123 -153 91 -268 156 -277 156 -5 0 -85 -45 -179
-100z m166 -73 l0 -123 -35 -17 -36 -17 -99 57 c-55 32 -99 61 -98 65 3 7 255
156 266 158 1 0 2 -55 2 -123z m179 38 c77 -44 141 -84 141 -88 0 -4 -14 -16
-31 -25 -17 -9 -55 -31 -85 -49 -81 -47 -89 -48 -139 -16 l-45 28 0 118 c0 66
4 117 9 115 5 -1 72 -39 150 -83z m-272 -228 c51 -28 93 -58 93 -64 0 -20 -63
-143 -74 -143 -15 0 -306 171 -306 180 0 4 16 40 35 79 l36 72 62 -36 c34 -19
104 -59 154 -88z m443 -7 c0 -121 -12 -154 -71 -202 -40 -31 -200 -128 -214
-128 -3 0 -5 63 -5 140 l0 140 39 20 c22 11 82 45 133 75 51 30 98 55 105 55
10 0 13 -26 13 -100z m-557 -174 c95 -57 133 -76 152 -76 9 0 24 19 36 45 32
71 39 65 39 -34 0 -57 -4 -91 -10 -91 -6 0 -76 37 -155 83 -98 56 -145 88
-145 100 0 9 3 17 6 17 3 0 38 -20 77 -44z"/>
</g>
</svg>
