<?xml version="1.0" encoding="UTF-8"?>
<svg version="1.1" xmlns="http://www.w3.org/2000/svg" width="1024" height="1024">
<path d="M0 0 C0 -0.66 0 -1.32 0 -2 C0.99 -1.731875 1.98 -1.46375 3 -1.1875 C6.99319511 -0.17357568 11.00023785 0.50695556 15.0625 1.1875 C28.97762151 3.65633895 43.37553133 7.64102598 56.01171875 14.0546875 C57.95521098 15.06422294 57.95521098 15.06422294 60.01953125 15.4765625 C63.08065891 16.28561794 65.3950124 18.09352396 68 19.84375 C70.0117197 21.00677545 71.731127 21.55432852 74 22 C74 22.66 74 23.32 74 24 C74.66 24.21785156 75.32 24.43570312 76 24.66015625 C80.0241291 26.45739099 83.42183848 28.88247343 87 31.4375 C88.12233032 32.23450317 88.12233032 32.23450317 89.26733398 33.04760742 C96.16967598 38.01126284 102.61738471 43.39317221 109 49 C109.85078125 49.71671875 110.7015625 50.4334375 111.578125 51.171875 C112.31546875 51.79578125 113.0528125 52.4196875 113.8125 53.0625 C114.43769531 53.58972656 115.06289063 54.11695313 115.70703125 54.66015625 C117 56 117 56 117 58 C117.99 58.33 118.98 58.66 120 59 C122.77064582 61.9689538 125.22654986 65.1913401 127.73095703 68.38671875 C128.97317791 69.9659022 130.23445867 71.53003328 131.49609375 73.09375 C145.19340165 90.22742822 164 117.45610663 164 140 C164.66 140.33 165.32 140.66 166 141 C166 143.64 166 146.28 166 149 C166.66 149.33 167.32 149.66 168 150 C168.50244141 152.55004883 168.50244141 152.55004883 168.8515625 155.95703125 C168.98095215 157.20484375 169.1103418 158.45265625 169.24365234 159.73828125 C169.372163 161.09622289 169.4992482 162.4543001 169.625 163.8125 C169.69003723 164.49538086 169.75507446 165.17826172 169.82208252 165.88183594 C172.39644598 193.19205605 169.93692225 217.69604685 162 244 C161.67128906 245.14984375 161.34257813 246.2996875 161.00390625 247.484375 C154.76433303 268.00563804 141.7839957 286.08429466 129 303 C130.63670746 307.16385427 133.6777081 309.95190525 136.79492188 313.0378418 C137.68299278 313.92876022 137.68299278 313.92876022 138.58900452 314.837677 C140.54406955 316.79644196 142.50623348 318.74792182 144.46875 320.69921875 C145.82909991 322.05837648 147.18908028 323.41790415 148.54870605 324.77778625 C151.39706306 327.62457983 154.248747 330.46798349 157.10302734 333.30883789 C160.7668994 336.95569616 164.42412992 340.60912691 168.07912445 344.26488018 C170.88572855 347.0712128 173.69492798 349.87493491 176.50502014 352.67777443 C177.85486429 354.02443052 179.20409845 355.37169834 180.55271912 356.7195797 C182.43433468 358.59903454 184.31920168 360.4751637 186.20507812 362.3503418 C186.76514053 362.91085739 187.32520294 363.47137299 187.90223694 364.0488739 C190.68845899 366.87252769 190.68845899 366.87252769 194 369 C194 369.66 194 370.32 194 371 C194.86625 371.3403125 194.86625 371.3403125 195.75 371.6875 C198.59591381 373.34761639 199.99841921 375.39187957 202 378 C204.49529455 380.62325838 206.95323145 382.96362446 209.8125 385.1875 C210.534375 385.785625 211.25625 386.38375 212 387 C212 387.66 212 388.32 212 389 C212.66 389 213.32 389 214 389 C215.625 390.375 215.625 390.375 217 392 C217 392.66 217 393.32 217 394 C217.598125 394.268125 218.19625 394.53625 218.8125 394.8125 C220.99847854 395.99917406 222.41332594 397.09599113 224 399 C224 399.66 224 400.32 224 401 C224.79233536 401.30386879 224.79233536 401.30386879 225.60067749 401.61387634 C229.04073792 403.6012495 231.62182158 406.36956364 234.38916016 409.17797852 C235.02051376 409.81064636 235.65186737 410.44331421 236.30235291 411.09515381 C238.385892 413.1851785 240.46236807 415.28208237 242.5390625 417.37890625 C243.98536123 418.83147533 245.43217628 420.28353049 246.87948608 421.73509216 C250.68712266 425.55603051 254.48915198 429.38249604 258.28961182 433.21057129 C264.37889478 439.34298196 270.47492034 445.46867221 276.57416916 451.59116936 C278.70707835 453.73432846 280.83655741 455.88085344 282.96572876 458.02772522 C284.26691424 459.33573613 285.56820834 460.64363901 286.86962891 461.95141602 C287.46395218 462.55247665 288.05827545 463.15353729 288.67060852 463.77281189 C291.55529183 466.75401236 291.55529183 466.75401236 295 469 C295 469.66 295 470.32 295 471 C295.66 471 296.32 471 297 471 C298.17769266 472.41323119 299.35050833 473.83095663 300.4921875 475.2734375 C302.63294453 477.72477068 305.10020377 479.68502303 307.64453125 481.703125 C308.09183594 482.13109375 308.53914063 482.5590625 309 483 C309 483.66 309 484.32 309 485 C310.32 485.66 311.64 486.32 313 487 C313 487.66 313 488.32 313 489 C313.66 489 314.32 489 315 489 C315 489.66 315 490.32 315 491 C315.66 491 316.32 491 317 491 C317 491.66 317 492.32 317 493 C318.32 493.66 319.64 494.32 321 495 C321 495.66 321 496.32 321 497 C321.66 497 322.32 497 323 497 C327.75817698 502.11156943 329.89400567 507.35736354 330.17578125 514.28515625 C329.80788216 519.9671533 328.11955337 525.88044663 324 530 C323.34 530 322.68 530 322 530 C322 530.66 322 531.32 322 532 C315.17761571 536.37084194 309.66983244 538.80233478 301.515625 537.6484375 C292.13141645 535.12191981 284.16174726 527.3152172 278 520 C277.67 519.01 277.34 518.02 277 517 C275.68682824 516.29444905 274.35037371 515.6314373 273 515 C271.37287951 513.61552316 271.37287951 513.61552316 269.75470734 511.98683643 C269.13264892 511.36567662 268.51059051 510.74451681 267.86968184 510.10453397 C267.19536383 509.42097969 266.52104583 508.7374254 265.82629395 508.03315735 C265.10290974 507.30795417 264.37952554 506.58275098 263.6342206 505.83557194 C261.20516173 503.39808194 258.78332847 500.9535355 256.36132812 498.5090332 C254.62387379 496.76283191 252.88594206 495.01710551 251.14756775 493.27182007 C247.40223486 489.50998258 243.65981452 485.7452823 239.91966248 481.97829628 C234.01079963 476.0275294 228.09215747 470.08654284 222.17199707 464.14701843 C220.14696435 462.11510608 218.12200799 460.08311766 216.09708405 458.05109692 C215.59107287 457.54331409 215.0850617 457.03553127 214.56371686 456.51236108 C208.80578493 450.73393922 203.05019311 444.95318867 197.29541016 439.17163086 C196.76938259 438.64316074 196.24335502 438.11469062 195.70138723 437.57020625 C187.16738726 428.99615547 178.63931244 420.41622861 170.11251193 411.83501897 C161.36159644 403.02874413 152.60112691 394.23204878 143.8325057 385.4434039 C138.42164699 380.01944694 133.01894765 374.58760618 127.62635887 369.14548352 C123.49856417 364.98121795 119.35792536 360.82989318 115.2123127 356.68336105 C113.50994356 354.97640333 111.81190345 353.26511617 110.11843681 351.54932594 C107.81482366 349.21657063 105.49651287 346.89951181 103.17370605 344.58589172 C102.49938805 343.89564527 101.82507005 343.20539882 101.13031816 342.49423581 C100.50825975 341.88089924 99.88620133 341.26756267 99.24529266 340.63564014 C98.71129585 340.09866058 98.17729903 339.56168102 97.62712049 339.00842935 C96.03122992 337.78951283 96.03122992 337.78951283 93.99150515 338.21002835 C90.76677641 339.48918361 88.06831218 341.57474031 85.25 343.5625 C66.67569103 356.27075756 45.80670532 363.88129559 24 369 C23.22688477 369.18224121 22.45376953 369.36448242 21.65722656 369.55224609 C-1.63932044 374.72068533 -29.78172284 374.29750047 -53 369 C-53.7626416 368.83371094 -54.5252832 368.66742187 -55.31103516 368.49609375 C-74.19325031 364.28531688 -91.94372674 357.03509324 -109 348 C-109.66 347.67 -110.32 347.34 -111 347 C-112.67222967 345.67365031 -114.33800959 344.33915774 -116 343 C-125.13539357 335.9372307 -125.13539357 335.9372307 -135 330 C-135.92603519 328.98508836 -136.81736811 327.93822965 -137.6875 326.875 C-141.69765048 322.1080319 -145.79807075 317.46795283 -151 314 C-155.44281415 309.3954027 -159.26975541 304.18536156 -163 299 C-163.57427734 298.20988525 -163.57427734 298.20988525 -164.16015625 297.40380859 C-169.93087219 289.4205437 -175.17146758 281.24932619 -179.9375 272.625 C-180.38569092 271.81772461 -180.83388184 271.01044922 -181.2956543 270.17871094 C-189.80765061 254.46178584 -194.86889826 237.19093042 -198.23828125 219.71875 C-198.79184946 216.20077075 -198.79184946 216.20077075 -200 214 C-202.28982142 195.70969801 -201.55246001 176.59632508 -200.21875 158.2578125 C-200.03291572 155.49020918 -199.95783998 152.77202125 -200 150 C-199.34 150 -198.68 150 -198 150 C-197.70867187 148.75347656 -197.41734375 147.50695312 -197.1171875 146.22265625 C-189.62778471 114.82799849 -176.67968717 87.92670033 -156 63 C-155.55253418 62.43361816 -155.10506836 61.86723633 -154.64404297 61.28369141 C-153.47342365 59.81945422 -152.24114713 58.40495335 -151 57 C-150.34 57 -149.68 57 -149 57 C-148.7525 56.42765625 -148.505 55.8553125 -148.25 55.265625 C-143.88505442 47.35416115 -135.11007456 41.33490403 -128 36 C-127.41782715 35.55785156 -126.8356543 35.11570312 -126.23583984 34.66015625 C-98.61175412 13.83096058 -35.13637141 -17.56818571 0 0 Z M-111 72 C-111 72.66 -111 73.32 -111 74 C-111.639375 74.268125 -112.27875 74.53625 -112.9375 74.8125 C-115.33131686 75.88667752 -115.33131686 75.88667752 -116 79 C-116.99 79.33 -117.98 79.66 -119 80 C-119 80.66 -119 81.32 -119 82 C-119.99 82.33 -120.98 82.66 -122 83 C-152.48000349 115.10061717 -164.00666935 154.98913621 -163.12304688 198.4375 C-161.82570743 235.99856586 -141.3343625 270.38918772 -115 296 C-111.79201757 298.90774818 -108.60533877 301.59644082 -105 304 C-103.35361842 305.22843223 -101.70786401 306.45770517 -100.0625 307.6875 C-81.31104993 321.26698149 -59.03306544 330.15804358 -36 333 C-35.19433594 333.11085938 -34.38867188 333.22171875 -33.55859375 333.3359375 C5.76592728 337.88995089 45.68830445 326.56395867 76.94213867 302.2824707 C89.75858913 291.88385054 100.96422277 279.79987777 110 266 C110.64066406 265.03191406 111.28132813 264.06382812 111.94140625 263.06640625 C131.637148 231.29765949 137.48590408 191.95458277 129.375 155.6875 C124.49287645 135.41047708 115.71542509 116.49852677 103 100 C102.41734375 99.19046875 101.8346875 98.3809375 101.234375 97.546875 C100.70328125 96.80953125 100.1721875 96.0721875 99.625 95.3125 C98.93277344 94.34763672 98.93277344 94.34763672 98.2265625 93.36328125 C97.82179688 92.91339844 97.41703125 92.46351563 97 92 C96.34 92 95.68 92 95 92 C94.74782715 91.42258057 94.4956543 90.84516113 94.23583984 90.25024414 C92.84661422 87.72071182 91.27194483 86.02904881 89.2265625 83.99609375 C88.4840625 83.25552734 87.7415625 82.51496094 86.9765625 81.75195312 C86.20054687 80.98818359 85.42453125 80.22441406 84.625 79.4375 C83.85671875 78.66986328 83.0884375 77.90222656 82.296875 77.11132812 C76.38889378 70.95323521 76.38889378 70.95323521 69 67 C67.33333333 65.33333333 65.66666667 63.66666667 64 62 C42.61601224 46.8108165 16.14301134 38.04445445 -10 37 C-10.64098633 36.97276855 -11.28197266 36.94553711 -11.94238281 36.91748047 C-48.20167554 35.57485645 -83.54537366 48.21604714 -111 72 Z " fill="#242424" transform="translate(456,242)"/>
<path d="M0 0 C0 0.66 0 1.32 0 2 C2.31 2 4.62 2 7 2 C7 2.33 7 2.66 7 3 C-8.18 3 -23.36 3 -39 3 C-39 2.67 -39 2.34 -39 2 C-36.69 2 -34.38 2 -32 2 C-32 1.34 -32 0.68 -32 0 C-21.22299705 -1.25763948 -10.79298003 -0.74080644 0 0 Z " fill="#2D2D2C" transform="translate(454,241)"/>
<path d="M0 0 C0.66 0.66 1.32 1.32 2 2 C2.66 1.67 3.32 1.34 4 1 C4.16435547 1.83917969 4.16435547 1.83917969 4.33203125 2.6953125 C4.49058594 3.49710937 4.64914062 4.29890625 4.8125 5.125 C4.99167969 6.03765625 5.17085937 6.9503125 5.35546875 7.890625 C5.80391755 10.05405073 6.28847217 12.21017594 6.80078125 14.359375 C11.32543123 33.65882987 11.32543123 33.65882987 7 41 C6.85304688 39.34677734 6.85304688 39.34677734 6.703125 37.66015625 C5.78539888 28.107317 4.27251265 18.97102034 1.90234375 9.671875 C1.11126538 6.45276822 0.49342453 3.2759319 0 0 Z " fill="#2E2F2E" transform="translate(581,383)"/>
<path d="M0 0 C1.32 0 2.64 0 4 0 C4 0.66 4 1.32 4 2 C4.99 2.33 5.98 2.66 7 3 C8.6875 4.4375 8.6875 4.4375 10 6 C10 6.66 10 7.32 10 8 C10.53625 8.20625 11.0725 8.4125 11.625 8.625 C14.87338889 10.5056462 17.91978735 12.83807678 20 16 C19.56713867 18.10205078 19.56713867 18.10205078 19 20 C15.8293305 16.85817898 12.66414446 13.71089125 9.5 10.5625 C8.59378906 9.66466797 7.68757812 8.76683594 6.75390625 7.84179688 C5.89667969 6.98779297 5.03945313 6.13378906 4.15625 5.25390625 C3.36025391 4.46314697 2.56425781 3.6723877 1.74414062 2.85766602 C0 1 0 1 0 0 Z " fill="#2E2E2D" transform="translate(690,717)"/>
<path d="M0 0 C0.33 0 0.66 0 1 0 C1.22510059 12.20545439 0.88894886 23.92421981 -1 36 C-1.33 36 -1.66 36 -2 36 C-2.98648048 27.57697437 -3.17524784 19.42260954 -2 11 C-1.67 10.67 -1.34 10.34 -1 10 C-0.76712992 8.31816052 -0.58735834 6.6287584 -0.4375 4.9375 C-0.31181641 3.55884766 -0.31181641 3.55884766 -0.18359375 2.15234375 C-0.12300781 1.44207031 -0.06242188 0.73179687 0 0 Z " fill="#3C3C3C" transform="translate(626,422)"/>
<path d="M0 0 C1.32 0 2.64 0 4 0 C4 0.66 4 1.32 4 2 C4.61875 2.2475 5.2375 2.495 5.875 2.75 C8.38710296 4.22770762 8.76107344 5.43955177 10 8 C10.99 8.33 11.98 8.66 13 9 C13 9.66 13 10.32 13 11 C13.66 11 14.32 11 15 11 C15 11.66 15 12.32 15 13 C15.99 13.33 16.98 13.66 18 14 C17.67 15.32 17.34 16.64 17 18 C14.16266225 15.19151503 11.33081251 12.37756077 8.5 9.5625 C7.68917969 8.76005859 6.87835937 7.95761719 6.04296875 7.13085938 C5.27597656 6.36708984 4.50898437 5.60332031 3.71875 4.81640625 C3.00654297 4.10943604 2.29433594 3.40246582 1.56054688 2.67407227 C0 1 0 1 0 0 Z " fill="#30302F" transform="translate(583,610)"/>
<path d="M0 0 C1.32 0 2.64 0 4 0 C4 0.66 4 1.32 4 2 C4.99 2.33 5.98 2.66 7 3 C10.04566418 5.74852621 12.4411666 8.17377257 14 12 C14.66 12 15.32 12 16 12 C15.67 13.32 15.34 14.64 15 16 C12.49599357 13.5248518 9.99748094 11.04423106 7.5 8.5625 C6.78457031 7.85544922 6.06914063 7.14839844 5.33203125 6.41992188 C4.65527344 5.74638672 3.97851562 5.07285156 3.28125 4.37890625 C2.65283203 3.7557251 2.02441406 3.13254395 1.37695312 2.49047852 C0 1 0 1 0 0 Z " fill="#302F2F" transform="translate(674,701)"/>
<path d="M0 0 C0 0.66 0 1.32 0 2 C-2.70726366 2.5064814 -5.41557124 3.005351 -8.125 3.5 C-9.26582031 3.71462891 -9.26582031 3.71462891 -10.4296875 3.93359375 C-14.68042914 4.70312456 -18.65859197 5.16644376 -23 5 C-21 2 -21 2 -17.98828125 1.26953125 C-16.77527344 1.11871094 -15.56226563 0.96789062 -14.3125 0.8125 C-12.51232422 0.57466797 -12.51232422 0.57466797 -10.67578125 0.33203125 C-7.09353446 0.00844891 -3.59451785 -0.05998554 0 0 Z " fill="#252524" transform="translate(484,608)"/>
<path d="M0 0 C0.33 0 0.66 0 1 0 C1.99 8.25 2.98 16.5 4 25 C3.34 25.33 2.68 25.66 2 26 C1.67 23.69 1.34 21.38 1 19 C0.67 19 0.34 19 0 19 C-1.29479052 12.84974502 -2.0095763 6.02872891 0 0 Z " fill="#353636" transform="translate(623,395)"/>
<path d="M0 0 C0.71285156 0.45890625 1.42570312 0.9178125 2.16015625 1.390625 C7.37254796 4.72992305 12.58843574 7.99357541 18 11 C17.01 11.66 16.02 12.32 15 13 C14.40832031 12.59007812 13.81664062 12.18015625 13.20703125 11.7578125 C12.41683594 11.21898437 11.62664062 10.68015625 10.8125 10.125 C9.64654297 9.32449219 9.64654297 9.32449219 8.45703125 8.5078125 C6.04859553 6.89662479 6.04859553 6.89662479 3.26171875 6.1171875 C2.51535156 5.74851562 1.76898438 5.37984375 1 5 C0.1875 2.375 0.1875 2.375 0 0 Z " fill="#2A2A2A" transform="translate(354,548)"/>
<path d="M0 0 C0.33 0 0.66 0 1 0 C1 9.24 1 18.48 1 28 C0.67 28 0.34 28 0 28 C-1.81562455 22.67138543 -2.17806349 18.45581902 -1.6875 12.875 C-1.63916016 12.18535156 -1.59082031 11.49570312 -1.54101562 10.78515625 C-1.2645846 7.1250695 -0.81472777 3.57923141 0 0 Z " fill="#0A0A09" transform="translate(590,415)"/>
<path d="M0 0 C2.475 0.495 2.475 0.495 5 1 C5 1.66 5 2.32 5 3 C5.59296875 3.24492188 6.1859375 3.48984375 6.796875 3.7421875 C9.36698726 5.20952109 10.54529966 6.72292225 12.25 9.125 C12.77078125 9.84945312 13.2915625 10.57390625 13.828125 11.3203125 C14.40820312 12.15175781 14.40820312 12.15175781 15 13 C14.67 13.66 14.34 14.32 14 15 C11.66265901 12.69152056 9.33081534 10.37756659 7 8.0625 C6.33226562 7.40314453 5.66453125 6.74378906 4.9765625 6.06445312 C4.34492187 5.43603516 3.71328125 4.80761719 3.0625 4.16015625 C2.47597656 3.57886963 1.88945313 2.99758301 1.28515625 2.39868164 C0 1 0 1 0 0 Z " fill="#393939" transform="translate(647,674)"/>
<path d="M0 0 C0.66 0.66 1.32 1.32 2 2 C2.66 1.67 3.32 1.34 4 1 C3.67 2.32 3.34 3.64 3 5 C2.34 5 1.68 5 1 5 C0.80664062 5.62648438 0.61328125 6.25296875 0.4140625 6.8984375 C0.15367187 7.71570313 -0.10671875 8.53296875 -0.375 9.375 C-0.63023437 10.18710937 -0.88546875 10.99921875 -1.1484375 11.8359375 C-2 14 -2 14 -4 16 C-4.66 16 -5.32 16 -6 16 C-4.27933894 10.55123997 -2.15294651 5.28830549 0 0 Z " fill="#2E2F2E" transform="translate(579,479)"/>
<path d="M0 0 C0.9867097 3.11074833 0.96838493 5.16442757 0.22265625 8.328125 C0.03896484 9.12734375 -0.14472656 9.9265625 -0.33398438 10.75 C-0.53314453 11.575 -0.73230469 12.4 -0.9375 13.25 C-1.23043945 14.51070313 -1.23043945 14.51070313 -1.52929688 15.796875 C-2.01142286 17.86648898 -2.50463863 19.93351395 -3 22 C-3.33 22 -3.66 22 -4 22 C-5.53616498 14.73812918 -4.07979208 9.05014265 -2 2 C-1.34 2 -0.68 2 0 2 C0 1.34 0 0.68 0 0 Z " fill="#2C2C2C" transform="translate(298,384)"/>
<path d="M0 0 C1.30348086 3.91044257 0.35619721 5.20355304 -1.25 8.9375 C-1.68828125 9.97777344 -2.1265625 11.01804687 -2.578125 12.08984375 C-3.84450611 14.68175015 -5.17864011 16.77686955 -7 19 C-6.43736318 12.67033582 -4.65075343 6.78164333 -2 1 C-1.34 0.67 -0.68 0.34 0 0 Z " fill="#323232" transform="translate(615,489)"/>
<path d="M0 0 C0.66 0.66 1.32 1.32 2 2 C2.66 1.67 3.32 1.34 4 1 C4.33951619 2.56116819 4.67132544 4.12401338 5 5.6875 C5.185625 6.55761719 5.37125 7.42773438 5.5625 8.32421875 C5.98972047 10.93712964 6.07616201 13.35813038 6 16 C5.34 16.33 4.68 16.66 4 17 C3.32844651 14.73050898 2.6626037 12.4596039 2 10.1875 C1.443125 8.29064453 1.443125 8.29064453 0.875 6.35546875 C0 3 0 3 0 0 Z " fill="#363635" transform="translate(581,383)"/>
<path d="M0 0 C1.32 0 2.64 0 4 0 C4 0.66 4 1.32 4 2 C4.86625 2.3403125 4.86625 2.3403125 5.75 2.6875 C8.62887527 4.36684391 10.17447619 6.22790829 12 9 C11.67 9.99 11.34 10.98 11 12 C9.16364422 10.19047409 7.33083792 8.37759362 5.5 6.5625 C4.97535156 6.04623047 4.45070313 5.52996094 3.91015625 4.99804688 C2.58775448 3.68423213 1.29164432 2.34406495 0 1 C0 0.67 0 0.34 0 0 Z " fill="#2F2E2E" transform="translate(710,737)"/>
<path d="M0 0 C0.66 0.33 1.32 0.66 2 1 C2 1.66 2 2.32 2 3 C0.3203125 4.4375 0.3203125 4.4375 -1.875 6 C-4.09802257 7.59356457 -6.06234725 9.06234725 -8 11 C-10.125 10.625 -10.125 10.625 -12 10 C-10.75160501 8.894019 -9.50120766 7.79029799 -8.25 6.6875 C-7.55390625 6.07261719 -6.8578125 5.45773437 -6.140625 4.82421875 C-4.14885494 3.12685266 -2.11101085 1.54522191 0 0 Z " fill="#2E2E2F" transform="translate(332,275)"/>
<path d="M0 0 C0.66 0.33 1.32 0.66 2 1 C3.36145995 7.34616009 3.28588134 12.94913762 1 19 C0.01 18.34 -0.98 17.68 -2 17 C-1.855625 16.443125 -1.71125 15.88625 -1.5625 15.3125 C-0.28453328 10.05863683 0.19646963 5.40291471 0 0 Z " fill="#363737" transform="translate(783,747)"/>
<path d="M0 0 C3.11373372 1.49920512 6.12228205 3.08152136 9 5 C9 5.66 9 6.32 9 7 C9.66 7 10.32 7 11 7 C11 7.66 11 8.32 11 9 C11.66 9 12.32 9 13 9 C13.33 10.32 13.66 11.64 14 13 C10.12060491 11.41379873 7.66638913 8.90079013 4.75 5.9375 C3.85796875 5.03902344 2.9659375 4.14054688 2.046875 3.21484375 C0 1 0 1 0 0 Z " fill="#1F1F1D" transform="translate(760,724)"/>
<path d="M0 0 C2.475 0.495 2.475 0.495 5 1 C5 1.66 5 2.32 5 3 C5.66 3 6.32 3 7 3 C7 3.66 7 4.32 7 5 C7.639375 5.226875 8.27875 5.45375 8.9375 5.6875 C11 7 11 7 11.75 9.625 C11.87375 10.800625 11.87375 10.800625 12 12 C7.47384007 8.32167983 3.60575001 4.58913637 0 0 Z " fill="#353433" transform="translate(607,634)"/>
<path d="M0 0 C4.62 0 9.24 0 14 0 C14.33 0.99 14.66 1.98 15 3 C5.31418523 4.56154748 5.31418523 4.56154748 1 2 C0.67 1.34 0.34 0.68 0 0 Z " fill="#2C2B2B" transform="translate(754,776)"/>
<path d="M0 0 C0.66 0 1.32 0 2 0 C3.1764022 1.41168264 4.34842951 2.82736644 5.4921875 4.265625 C8.02702547 7.18134536 11.00835865 9.56875256 14 12 C13.67 12.66 13.34 13.32 13 14 C7.92845737 10.45117861 3.65616221 7.02722304 0 2 C0 1.34 0 0.68 0 0 Z " fill="#282928" transform="translate(751,713)"/>
<path d="M0 0 C2.3125 0.5625 2.3125 0.5625 5 2 C8.22916667 7.8125 8.22916667 7.8125 7.5703125 11.2265625 C7.38210938 11.81179688 7.19390625 12.39703125 7 13 C5.82786955 11.21190303 4.66244474 9.41940875 3.5 7.625 C2.8503125 6.62726562 2.200625 5.62953125 1.53125 4.6015625 C0 2 0 2 0 0 Z " fill="#2E2E2E" transform="translate(281,521)"/>
<path d="M0 0 C3.83870274 1.56391593 6.30972363 3.8734626 9 7 C9.8125 9.8125 9.8125 9.8125 10 12 C8.8944811 11.06409496 7.79064547 10.12620142 6.6875 9.1875 C6.07261719 8.66542969 5.45773437 8.14335938 4.82421875 7.60546875 C4.22222656 7.07566406 3.62023437 6.54585937 3 6 C2.42894531 5.50113281 1.85789062 5.00226562 1.26953125 4.48828125 C0 3 0 3 0 0 Z " fill="#2F2F2E" transform="translate(573,598)"/>
<path d="M0 0 C0.66 0.33 1.32 0.66 2 1 C1.4375 2.8125 1.4375 2.8125 0 5 C-3.28443398 6.6123585 -6.53291282 7.84430427 -10 9 C-10.66 8.34 -11.32 7.68 -12 7 C-10.04754815 5.80285445 -8.08785003 4.61751926 -6.125 3.4375 C-5.03445313 2.77621094 -3.94390625 2.11492188 -2.8203125 1.43359375 C-1.88960937 0.96050781 -0.95890625 0.48742187 0 0 Z " fill="#30302F" transform="translate(520,552)"/>
<path d="M0 0 C2.69398922 2.58622965 5.24053318 5.29852336 7.75 8.0625 C8.36359375 8.73410156 8.9771875 9.40570312 9.609375 10.09765625 C11 12 11 12 11 15 C9.53792657 13.73347137 8.08047074 12.46161082 6.625 11.1875 C5.81289063 10.47980469 5.00078125 9.77210938 4.1640625 9.04296875 C2 7 2 7 0 4 C0 2.68 0 1.36 0 0 Z " fill="#323332" transform="translate(320,514)"/>
<path d="M0 0 C0.33 0 0.66 0 1 0 C1.19294408 4.82360189 0.75747614 8.49646738 -1 13 C-1.66 13 -2.32 13 -3 13 C-3.33 14.65 -3.66 16.3 -4 18 C-5.35814777 13.9255567 -3.94745762 11.18531884 -2.5625 7.3125 C-2.31951172 6.61060547 -2.07652344 5.90871094 -1.82617188 5.18554688 C-1.2255056 3.45421468 -0.61380281 1.72671863 0 0 Z " fill="#373736" transform="translate(267,360)"/>
<path d="M0 0 C10.55808656 -0.18451025 10.55808656 -0.18451025 15 1 C15 1.66 15 2.32 15 3 C15.99 3.33 16.98 3.66 18 4 C11.85845775 3.41509121 5.99320151 2.45933748 0 1 C0 0.67 0 0.34 0 0 Z " fill="#3C3C3B" transform="translate(390,607)"/>
<path d="M0 0 C7.48291572 6.15034169 7.48291572 6.15034169 10 10 C8.68 10 7.36 10 6 10 C6 9.34 6 8.68 6 8 C5.34 8 4.68 8 4 8 C1.875 6.25 1.875 6.25 0 4 C0 2.68 0 1.36 0 0 Z " fill="#323231" transform="translate(700,662)"/>
<path d="M0 0 C1.32 0 2.64 0 4 0 C4 0.66 4 1.32 4 2 C4.99 2.33 5.98 2.66 7 3 C8.75 4.3125 8.75 4.3125 10 6 C9.578125 8.10546875 9.578125 8.10546875 9 10 C7.49702124 8.52386015 5.99768715 7.04400843 4.5 5.5625 C3.6646875 4.73878906 2.829375 3.91507813 1.96875 3.06640625 C0 1 0 1 0 0 Z " fill="#343333" transform="translate(553,580)"/>
<path d="M0 0 C0.33 0 0.66 0 1 0 C2.55608908 10.82953887 2.55608908 10.82953887 0 15 C-0.99 15.495 -0.99 15.495 -2 16 C-1.34 10.72 -0.68 5.44 0 0 Z " fill="#393938" transform="translate(587,447)"/>
<path d="M0 0 C0.66 0 1.32 0 2 0 C2 0.66 2 1.32 2 2 C2.66 2 3.32 2 4 2 C4 2.66 4 3.32 4 4 C4.66 4 5.32 4 6 4 C6 4.66 6 5.32 6 6 C6.66 6 7.32 6 8 6 C7.67 7.32 7.34 8.64 7 10 C5.82438854 8.90536178 4.6597511 7.79892814 3.5 6.6875 C2.52546875 5.76517578 2.52546875 5.76517578 1.53125 4.82421875 C0 3 0 3 0 0 Z " fill="#323231" transform="translate(627,652)"/>
<path d="M0 0 C2 3 2 3 2.5 6.625 C2.665 7.73875 2.83 8.8525 3 10 C3.66 10.33 4.32 10.66 5 11 C4.01 12.485 4.01 12.485 3 14 C3 13.34 3 12.68 3 12 C2.34 12 1.68 12 1 12 C-1.27678571 3.96428571 -1.27678571 3.96428571 0 0 Z " fill="#3B3A3A" transform="translate(617,372)"/>
<path d="M0 0 C0.66 0.33 1.32 0.66 2 1 C0.375 4 0.375 4 -2 7 C-5.25 7.375 -5.25 7.375 -8 7 C-5.4837822 4.39391727 -2.94865641 2.10618315 0 0 Z " fill="#333433" transform="translate(530,545)"/>
<path d="M0 0 C0.556875 0.28875 1.11375 0.5775 1.6875 0.875 C4.08494645 2.0413253 6.51596939 3.0339881 9 4 C8.34 5.32 7.68 6.64 7 8 C3.535 6.02 3.535 6.02 0 4 C0 2.68 0 1.36 0 0 Z " fill="#2F2F2F" transform="translate(343,540)"/>
<path d="M0 0 C1.45606519 4.52092968 0.27032841 7.51648796 -1 12 C-3.32590854 8.36576791 -3.16265833 5.22911669 -3 1 C-2.01 1.495 -2.01 1.495 -1 2 C-0.67 1.34 -0.34 0.68 0 0 Z " fill="#393939" transform="translate(621,468)"/>
<path d="M0 0 C0.99 0.33 1.98 0.66 3 1 C3.984375 3.1796875 3.984375 3.1796875 4.75 5.875 C5.01296875 6.75929688 5.2759375 7.64359375 5.546875 8.5546875 C6 11 6 11 5 14 C4.16235732 12.04350603 3.33000941 10.08474444 2.5 8.125 C2.0359375 7.03445313 1.571875 5.94390625 1.09375 4.8203125 C0 2 0 2 0 0 Z " fill="#3A3B3A" transform="translate(574,366)"/>
<path d="M0 0 C1.32 0 2.64 0 4 0 C4 0.66 4 1.32 4 2 C4.99 2.33 5.98 2.66 7 3 C7.33 4.65 7.66 6.3 8 8 C6.85073734 7.04578192 5.70569459 6.08647955 4.5625 5.125 C3.92441406 4.59132813 3.28632812 4.05765625 2.62890625 3.5078125 C1 2 1 2 0 0 Z " fill="#343434" transform="translate(666,693)"/>
<path d="M0 0 C0 0.66 0 1.32 0 2 C1.32 2.33 2.64 2.66 4 3 C1.21078018 4.39460991 -0.12077103 3.58060045 -3.0625 2.6875 C-3.96097656 2.42324219 -4.85945313 2.15898437 -5.78515625 1.88671875 C-8 1 -8 1 -9 -1 C-5.23375329 -2.25541557 -3.62811066 -1.37061958 0 0 Z " fill="#383837" transform="translate(493,287)"/>
<path d="M0 0 C1.33597652 0.80814651 2.668725 1.62163181 4 2.4375 C5.11375 3.11619141 5.11375 3.11619141 6.25 3.80859375 C6.8275 4.20175781 7.405 4.59492187 8 5 C8 5.33 8 5.66 8 6 C5.125 6.1875 5.125 6.1875 2 6 C0 3 0 3 0 0 Z " fill="#313131" transform="translate(354,548)"/>
<path d="M0 0 C0.33 0 0.66 0 1 0 C1.33 6.27 1.66 12.54 2 19 C1.67 19 1.34 19 1 19 C-1.50413785 12.51870203 -0.82810601 6.81508864 0 0 Z " fill="#151515" transform="translate(589,424)"/>
<path d="M0 0 C-1 2 -1 2 -3.8125 3.25 C-7 4 -7 4 -9.375 3.125 C-9.91125 2.75375 -10.4475 2.3825 -11 2 C-9.73392393 1.46770674 -8.46189588 0.94955456 -7.1875 0.4375 C-6.47980469 0.14746094 -5.77210938 -0.14257812 -5.04296875 -0.44140625 C-3 -1 -3 -1 0 0 Z " fill="#373737" transform="translate(382,251)"/>
<path d="M0 0 C-0.66 0 -1.32 0 -2 0 C-2 0.66 -2 1.32 -2 2 C-5.98196457 3.05404945 -8.98195309 2.84098656 -13 2 C-13 1.67 -13 1.34 -13 1 C-11.58622218 0.63447197 -10.16879424 0.28304505 -8.75 -0.0625 C-7.96109375 -0.25972656 -7.1721875 -0.45695313 -6.359375 -0.66015625 C-3.89605178 -1.01497267 -2.34395868 -0.76877544 0 0 Z " fill="#3F3F3F" transform="translate(480,572)"/>
<path d="M0 0 C0.99 0.66 1.98 1.32 3 2 C1.71475739 2.86380259 0.42157581 3.71580369 -0.875 4.5625 C-1.59429687 5.03816406 -2.31359375 5.51382812 -3.0546875 6.00390625 C-3.69664062 6.33261719 -4.33859375 6.66132813 -5 7 C-5.66 6.67 -6.32 6.34 -7 6 C-4.74259377 3.66475218 -2.7194239 1.81294927 0 0 Z " fill="#343433" transform="translate(370,294)"/>
<path d="M0 0 C0.6875 1.6875 0.6875 1.6875 1 4 C-0.25 6.6875 -0.25 6.6875 -2 9 C-2.99 9.33 -3.98 9.66 -5 10 C-3.66511872 6.40608886 -2.03977277 3.24509304 0 0 Z " fill="#30302F" transform="translate(571,498)"/>
<path d="M0 0 C0.33 0 0.66 0 1 0 C0.67 4.95 0.34 9.9 0 15 C-0.33 15 -0.66 15 -1 15 C-1.33 11.04 -1.66 7.08 -2 3 C-1.34 3 -0.68 3 0 3 C0 2.01 0 1.02 0 0 Z " fill="#484848" transform="translate(625,443)"/>
<path d="M0 0 C3.63 0.33 7.26 0.66 11 1 C11 1.33 11 1.66 11 2 C4.565 2.495 4.565 2.495 -2 3 C-1.34 2.01 -0.68 1.02 0 0 Z " fill="#444444" transform="translate(463,610)"/>
<path d="M0 0 C-2.36689329 2.19219402 -3.51727269 2.9871902 -6.796875 3.07421875 C-7.77140625 2.94660156 -8.7459375 2.81898438 -9.75 2.6875 C-10.73484375 2.56761719 -11.7196875 2.44773437 -12.734375 2.32421875 C-13.48203125 2.21722656 -14.2296875 2.11023438 -15 2 C-15 1.67 -15 1.34 -15 1 C-9.9752761 0.37470103 -5.07471573 -0.13012092 0 0 Z " fill="#484847" transform="translate(467,574)"/>
<path d="M0 0 C0.66 0.33 1.32 0.66 2 1 C0.35 2.98 -1.3 4.96 -3 7 C-4.32 6.67 -5.64 6.34 -7 6 C-4.69 4.02 -2.38 2.04 0 0 Z " fill="#30302F" transform="translate(539,538)"/>
<path d="M0 0 C0 4.38968456 -2.12805101 5.76905739 -5 9 C-5.33 8.01 -5.66 7.02 -6 6 C-2.83636364 1.41818182 -2.83636364 1.41818182 0 0 Z " fill="#313030" transform="translate(591,534)"/>
<path d="M0 0 C0.66 0.66 1.32 1.32 2 2 C2.66 1.67 3.32 1.34 4 1 C3.67 2.32 3.34 3.64 3 5 C2.34 5 1.68 5 1 5 C1 5.66 1 6.32 1 7 C0.01 7.33 -0.98 7.66 -2 8 C-1.47731534 5.23723823 -0.89130413 2.6739124 0 0 Z " fill="#393939" transform="translate(579,479)"/>
<path d="M0 0 C2.3125 0.1875 2.3125 0.1875 5 1 C6.8125 3.5625 6.8125 3.5625 8 6 C7.01 6.33 6.02 6.66 5 7 C4.731875 6.401875 4.46375 5.80375 4.1875 5.1875 C3.01506533 3.02775192 1.80630718 1.64209744 0 0 Z " fill="#363535" transform="translate(520,304)"/>
<path d="M0 0 C0.66 0.33 1.32 0.66 2 1 C-0.13464912 3.45484649 -1.70720291 4.68134222 -5 5 C-5.66 4.34 -6.32 3.68 -7 3 C-4.69631264 1.93347808 -2.35981813 0.93578995 0 0 Z " fill="#333334" transform="translate(369,254)"/>
<path d="M0 0 C0.66 0 1.32 0 2 0 C2 0.99 2 1.98 2 3 C2.99 3.33 3.98 3.66 5 4 C5.6875 6.0625 5.6875 6.0625 6 8 C2.83884224 6.63016497 2.0072908 6.0109362 0 3 C0 2.01 0 1.02 0 0 Z " fill="#1A1B1A" transform="translate(581,544)"/>
<path d="M0 0 C0.33 0 0.66 0 1 0 C3.27678571 8.03571429 3.27678571 8.03571429 2 12 C2 11.34 2 10.68 2 10 C1.34 10 0.68 10 0 10 C0 6.7 0 3.4 0 0 Z " fill="#3E3F3F" transform="translate(295,457)"/>
<path d="M0 0 C1.45606519 4.52092968 0.27032841 7.51648796 -1 12 C-1.33 12 -1.66 12 -2 12 C-2 8.7 -2 5.4 -2 2 C-1.34 2 -0.68 2 0 2 C0 1.34 0 0.68 0 0 Z " fill="#424242" transform="translate(298,384)"/>
<path d="M0 0 C1 2 1 2 0.375 4 C-1.39265071 6.57112831 -3.07589059 7.07659703 -6 8 C-4.55746343 4.63408134 -2.66735273 2.48952921 0 0 Z " fill="#1A1A19" transform="translate(338,318)"/>
<path d="M0 0 C4.05606165 0.46800711 7.46588679 0.87953208 11 3 C5.375 4.125 5.375 4.125 2 3 C2 2.34 2 1.68 2 1 C1.34 0.67 0.68 0.34 0 0 Z " fill="#3F3E3D" transform="translate(476,245)"/>
<path d="M0 0 C3.68754757 0.49831724 5.60490662 1.10067643 8 4 C7.01 4.495 7.01 4.495 6 5 C3.98079663 3.69593116 1.98075027 2.36176581 0 1 C0 0.67 0 0.34 0 0 Z " fill="#363736" transform="translate(747,773)"/>
<path d="M0 0 C3 0 3 0 5.6875 2.5 C6.450625 3.325 7.21375 4.15 8 5 C7.67 5.66 7.34 6.32 7 7 C5.82780457 6.21654285 4.66236332 5.42297164 3.5 4.625 C2.8503125 4.18414063 2.200625 3.74328125 1.53125 3.2890625 C1.0259375 2.86367188 0.520625 2.43828125 0 2 C0 1.34 0 0.68 0 0 Z " fill="#333332" transform="translate(757,720)"/>
<path d="M0 0 C0.33 0.66 0.66 1.32 1 2 C1.66 2 2.32 2 3 2 C3.93065133 4.60582371 4.14917407 5.64198224 3.0625 8.25 C2.711875 8.8275 2.36125 9.405 2 10 C0.68373308 6.38026598 0 3.90432869 0 0 Z " fill="#434442" transform="translate(262,477)"/>
<path d="M0 0 C0.66 0 1.32 0 2 0 C3.06775224 1.96466413 4.06553465 3.96855359 5 6 C4.67 6.66 4.34 7.32 4 8 C1.10067643 5.60490662 0.49831724 3.68754757 0 0 Z " fill="#2B2A2A" transform="translate(606,348)"/>
<path d="M0 0 C3.99996286 1.33332095 4.83782337 3.4957827 7 7 C5.1875 6.8125 5.1875 6.8125 3 6 C0 1.71428571 0 1.71428571 0 0 Z " fill="#323232" transform="translate(573,300)"/>
<path d="M0 0 C-0.99 0.33 -1.98 0.66 -3 1 C-3 1.66 -3 2.32 -3 3 C-5.64 3 -8.28 3 -11 3 C-7.11595442 0.41063628 -4.5725325 -0.12358196 0 0 Z " fill="#1E1D1D" transform="translate(411,280)"/>
<path d="M0 0 C1.32 0 2.64 0 4 0 C4 0.66 4 1.32 4 2 C4.99 2.33 5.98 2.66 7 3 C5.02 3.99 5.02 3.99 3 5 C3 4.34 3 3.68 3 3 C1.68 2.67 0.36 2.34 -1 2 C-0.67 1.34 -0.34 0.68 0 0 Z " fill="#353534" transform="translate(526,264)"/>
<path d="M0 0 C2.16874252 0.50603992 3.99967627 0.99983813 6 2 C6.625 4.0625 6.625 4.0625 7 6 C3.63279613 4.60667426 2.0140476 3.0210714 0 0 Z " fill="#1E1E1E" transform="translate(745,709)"/>
<path d="M0 0 C0.66 1.32 1.32 2.64 2 4 C2.66 4 3.32 4 4 4 C4.33 4.99 4.66 5.98 5 7 C4.01 8.485 4.01 8.485 3 10 C0.96564469 6.27034861 0 4.33094958 0 0 Z " fill="#424341" transform="translate(268,495)"/>
<path d="M0 0 C1.25541557 3.76624671 0.37061958 5.37188934 -1 9 C-1.33 9 -1.66 9 -2 9 C-2 6.36 -2 3.72 -2 1 C-1.34 0.67 -0.68 0.34 0 0 Z " fill="#1C1C1C" transform="translate(586,462)"/>
<path d="M0 0 C1.51953125 1.20703125 1.51953125 1.20703125 3 3 C3.07421875 5.26171875 3.07421875 5.26171875 2.6875 7.6875 C2.50767578 8.89986328 2.50767578 8.89986328 2.32421875 10.13671875 C2.21722656 10.75160156 2.11023438 11.36648438 2 12 C1.67 12 1.34 12 1 12 C-1.27678571 3.96428571 -1.27678571 3.96428571 0 0 Z " fill="#4D4D4D" transform="translate(257,452)"/>
<path d="M0 0 C3 1 3 1 5 4 C4.625 6.1875 4.625 6.1875 4 8 C0 2.25 0 2.25 0 0 Z " fill="#303030" transform="translate(565,350)"/>
<path d="M0 0 C2.72426311 2.35277269 3.8141763 4.62496331 5 8 C3.0625 7.375 3.0625 7.375 1 6 C0.25 2.875 0.25 2.875 0 0 Z " fill="#383838" transform="translate(597,330)"/>
<path d="M0 0 C0.75 1.75 0.75 1.75 1 4 C-0.9375 6.25 -0.9375 6.25 -3 8 C-3 4.42424104 -1.91159393 2.94704065 0 0 Z " fill="#333332" transform="translate(289,319)"/>
<path d="M0 0 C2.4375 1.25 2.4375 1.25 3.4375 4.25 C0.4675 3.755 0.4675 3.755 -2.5625 3.25 C-2.5625 2.59 -2.5625 1.93 -2.5625 1.25 C-3.2225 0.92 -3.8825 0.59 -4.5625 0.25 C-2.5625 -0.75 -2.5625 -0.75 0 0 Z " fill="#343233" transform="translate(501.5625,290.75)"/>
<path d="M0 0 C0.66 0.99 1.32 1.98 2 3 C1.67 3.66 1.34 4.32 1 5 C0.34 4.01 -0.32 3.02 -1 2 C-0.67 1.34 -0.34 0.68 0 0 Z " fill="#393737" transform="translate(569,360)"/>
<path d="M0 0 C0.33 0.99 0.66 1.98 1 3 C0.34 3 -0.32 3 -1 3 C-0.67 2.01 -0.34 1.02 0 0 Z " fill="#3B3A38" transform="translate(586,419)"/>
<path d="M0 0 C4 1 4 1 4 1 Z " fill="#3E3D3D" transform="translate(452,615)"/>
<path d="M0 0 C0.99 0.33 1.98 0.66 3 1 C2.01 1.33 1.02 1.66 0 2 C0 1.34 0 0.68 0 0 Z " fill="#3F3F3E" transform="translate(408,613)"/>
<path d="M0 0 C0 3 0 3 0 3 Z " fill="#3E3D3C" transform="translate(273,511)"/>
<path d="M0 0 C0.66 0.66 1.32 1.32 2 2 C1.01 2.495 1.01 2.495 0 3 C0 2.01 0 1.02 0 0 Z " fill="#3F3D3D" transform="translate(568,497)"/>
<path d="M0 0 C0.66 0 1.32 0 2 0 C2 0.66 2 1.32 2 2 C1.34 2 0.68 2 0 2 C0 1.34 0 0.68 0 0 Z " fill="#3A3839" transform="translate(585,416)"/>
<path d="M0 0 C0.99 0.495 0.99 0.495 2 1 C1.34 1.66 0.68 2.32 0 3 C0 2.01 0 1.02 0 0 Z " fill="#3B3A39" transform="translate(552,337)"/>
<path d="M0 0 C0.66 0 1.32 0 2 0 C2 0.66 2 1.32 2 2 C1.34 2 0.68 2 0 2 C0 1.34 0 0.68 0 0 Z " fill="#404040" transform="translate(589,312)"/>
<path d="M0 0 C0.66 0.33 1.32 0.66 2 1 C1.01 1 0.02 1 -1 1 C-0.67 0.67 -0.34 0.34 0 0 Z " fill="#424242" transform="translate(359,256)"/>
<path d="M0 0 C0.99 0.495 0.99 0.495 2 1 C1.01 1.495 1.01 1.495 0 2 C0 1.34 0 0.68 0 0 Z " fill="#424141" transform="translate(782,737)"/>
<path d="M0 0 C3 1 3 1 3 1 Z " fill="#403E3D" transform="translate(442,615)"/>
<path d="M0 0 C0.33 0.66 0.66 1.32 1 2 C0.34 1.67 -0.32 1.34 -1 1 C-0.67 0.67 -0.34 0.34 0 0 Z " fill="#3E3F40" transform="translate(321,574)"/>
<path d="M0 0 C3 1 3 1 3 1 Z " fill="#3D3C3C" transform="translate(296,549)"/>
<path d="" fill="#3B3A3A" transform="translate(0,0)"/>
<path d="M0 0 C0.66 0.66 1.32 1.32 2 2 C1.34 2 0.68 2 0 2 C0 1.34 0 0.68 0 0 Z " fill="#3D3B3A" transform="translate(576,480)"/>
<path d="" fill="#3B3C3C" transform="translate(0,0)"/>
<path d="M0 0 C0.99 0.495 0.99 0.495 2 1 C1.01 1.495 1.01 1.495 0 2 C0 1.34 0 0.68 0 0 Z " fill="#3C3A39" transform="translate(585,444)"/>
<path d="" fill="#393738" transform="translate(0,0)"/>
<path d="M0 0 C3 1 3 1 3 1 Z " fill="#3B3B3A" transform="translate(584,428)"/>
<path d="" fill="#3B3B3B" transform="translate(0,0)"/>
<path d="" fill="#3F3C3C" transform="translate(0,0)"/>
<path d="M0 0 C0.66 0.66 1.32 1.32 2 2 C1.34 2 0.68 2 0 2 C0 1.34 0 0.68 0 0 Z " fill="#3F3F40" transform="translate(612,352)"/>
<path d="M0 0 C0.99 0.495 0.99 0.495 2 1 C1.01 1.495 1.01 1.495 0 2 C0 1.34 0 0.68 0 0 Z " fill="#3B3A39" transform="translate(554,340)"/>
<path d="M0 0 C0.99 0.495 0.99 0.495 2 1 C1.01 1.495 1.01 1.495 0 2 C0 1.34 0 0.68 0 0 Z " fill="#42413F" transform="translate(280,322)"/>
<path d="M0 0 C3 1 3 1 3 1 Z " fill="#42413F" transform="translate(533,264)"/>
<path d="M0 0 C3 1 3 1 3 1 Z " fill="#434240" transform="translate(376,248)"/>
<path d="" fill="#444443" transform="translate(0,0)"/>
<path d="M0 0 C2 1 2 1 2 1 Z " fill="#413E41" transform="translate(744,775)"/>
<path d="M0 0 C2 1 2 1 2 1 Z " fill="#42423F" transform="translate(769,728)"/>
<path d="M0 0 C2 1 2 1 2 1 Z " fill="#3E3C3B" transform="translate(657,687)"/>
<path d="" fill="#403E3F" transform="translate(0,0)"/>
<path d="" fill="#3F403F" transform="translate(0,0)"/>
<path d="" fill="#403D3D" transform="translate(0,0)"/>
<path d="M0 0 C2 1 2 1 2 1 Z " fill="#413F3E" transform="translate(699,657)"/>
<path d="" fill="#3D3A3C" transform="translate(0,0)"/>
<path d="" fill="#3E3E3F" transform="translate(0,0)"/>
<path d="M0 0 C2 1 2 1 2 1 Z " fill="#3F3D3D" transform="translate(446,615)"/>
<path d="M0 0 C2 1 2 1 2 1 Z " fill="#3B3B3C" transform="translate(428,615)"/>
<path d="" fill="#3A3A38" transform="translate(0,0)"/>
<path d="M0 0 C2 1 2 1 2 1 Z " fill="#3E3C3E" transform="translate(419,614)"/>
<path d="M0 0 C2 1 2 1 2 1 Z " fill="#3E3D3E" transform="translate(416,614)"/>
<path d="M0 0 C2 1 2 1 2 1 Z " fill="#403E3E" transform="translate(472,613)"/>
<path d="M0 0 C2 1 2 1 2 1 Z " fill="#383836" transform="translate(405,612)"/>
<path d="" fill="#3F3E3F" transform="translate(0,0)"/>
<path d="M0 0 C2 1 2 1 2 1 Z " fill="#3E3C3B" transform="translate(569,599)"/>
<path d="M0 0 C2 1 2 1 2 1 Z " fill="#3E3B39" transform="translate(387,564)"/>
<path d="M0 0 C2 1 2 1 2 1 Z " fill="#3B3B38" transform="translate(496,560)"/>
<path d="M0 0 C2 1 2 1 2 1 Z " fill="#3D403D" transform="translate(526,544)"/>
<path d="M0 0 C2 1 2 1 2 1 Z " fill="#403F3D" transform="translate(288,541)"/>
<path d="M0 0 C2 1 2 1 2 1 Z " fill="#3C3C3B" transform="translate(538,536)"/>
<path d="" fill="#413D3D" transform="translate(0,0)"/>
<path d="" fill="#3E3F3E" transform="translate(0,0)"/>
<path d="" fill="#3D3C3B" transform="translate(0,0)"/>
<path d="M0 0 C2 1 2 1 2 1 Z " fill="#41403F" transform="translate(265,501)"/>
<path d="" fill="#3F3D3D" transform="translate(0,0)"/>
<path d="" fill="#3C3C3A" transform="translate(0,0)"/>
<path d="" fill="#383835" transform="translate(0,0)"/>
<path d="" fill="#3E3E3D" transform="translate(0,0)"/>
<path d="" fill="#3C3D3C" transform="translate(0,0)"/>
<path d="" fill="#3C3B3B" transform="translate(0,0)"/>
<path d="" fill="#3F3D3D" transform="translate(0,0)"/>
<path d="" fill="#41403F" transform="translate(0,0)"/>
<path d="" fill="#3C3837" transform="translate(0,0)"/>
<path d="M0 0 C2 1 2 1 2 1 Z " fill="#3A3A3A" transform="translate(579,386)"/>
<path d="" fill="#3F3F3E" transform="translate(0,0)"/>
<path d="M0 0 C2 1 2 1 2 1 Z " fill="#3B3939" transform="translate(577,381)"/>
<path d="" fill="#3D3E3E" transform="translate(0,0)"/>
<path d="" fill="#3D3D3C" transform="translate(0,0)"/>
<path d="" fill="#3C3A39" transform="translate(0,0)"/>
<path d="" fill="#3A3938" transform="translate(0,0)"/>
<path d="M0 0 C2 1 2 1 2 1 Z " fill="#383738" transform="translate(327,335)"/>
<path d="M0 0 C2 1 2 1 2 1 Z " fill="#3D3B3A" transform="translate(544,331)"/>
<path d="M0 0 C2 1 2 1 2 1 Z " fill="#41403C" transform="translate(288,315)"/>
<path d="M0 0 C2 1 2 1 2 1 Z " fill="#424140" transform="translate(304,296)"/>
<path d="M0 0 C2 1 2 1 2 1 Z " fill="#3E3D3C" transform="translate(493,295)"/>
<path d="" fill="#3D3E3B" transform="translate(0,0)"/>
<path d="M0 0 C2 1 2 1 2 1 Z " fill="#3E3D3C" transform="translate(465,283)"/>
<path d="M0 0 C2 1 2 1 2 1 Z " fill="#464440" transform="translate(328,275)"/>
<path d="M0 0 C2 1 2 1 2 1 Z " fill="#3F403F" transform="translate(542,272)"/>
<path d="" fill="#424341" transform="translate(0,0)"/>
<path d="" fill="#444341" transform="translate(0,0)"/>
<path d="M0 0 C2 1 2 1 2 1 Z " fill="#414140" transform="translate(479,243)"/>
<path d="" fill="#616163" transform="translate(0,0)"/>
<path d="" fill="#464643" transform="translate(0,0)"/>
<path d="" fill="#3B3B3C" transform="translate(0,0)"/>
<path d="" fill="#3F3E3D" transform="translate(0,0)"/>
<path d="" fill="#424441" transform="translate(0,0)"/>
<path d="" fill="#424240" transform="translate(0,0)"/>
<path d="" fill="#41403F" transform="translate(0,0)"/>
<path d="" fill="#3C3D3E" transform="translate(0,0)"/>
<path d="" fill="#40403D" transform="translate(0,0)"/>
<path d="" fill="#3F3D3C" transform="translate(0,0)"/>
<path d="" fill="#413F3D" transform="translate(0,0)"/>
<path d="" fill="#3C3A39" transform="translate(0,0)"/>
<path d="" fill="#413F40" transform="translate(0,0)"/>
<path d="" fill="#423D3E" transform="translate(0,0)"/>
<path d="" fill="#3E3D3F" transform="translate(0,0)"/>
<path d="" fill="#3E393B" transform="translate(0,0)"/>
<path d="" fill="#403D40" transform="translate(0,0)"/>
<path d="" fill="#403B3E" transform="translate(0,0)"/>
<path d="" fill="#403C3B" transform="translate(0,0)"/>
<path d="" fill="#403E3C" transform="translate(0,0)"/>
<path d="" fill="#3E3D39" transform="translate(0,0)"/>
<path d="" fill="#3F3F3F" transform="translate(0,0)"/>
<path d="" fill="#403E3D" transform="translate(0,0)"/>
<path d="" fill="#424041" transform="translate(0,0)"/>
<path d="" fill="#413D3D" transform="translate(0,0)"/>
<path d="" fill="#3F3E3E" transform="translate(0,0)"/>
<path d="" fill="#414040" transform="translate(0,0)"/>
<path d="" fill="#3F3F3E" transform="translate(0,0)"/>
<path d="" fill="#3D3B39" transform="translate(0,0)"/>
<path d="" fill="#3E3E3D" transform="translate(0,0)"/>
<path d="" fill="#404040" transform="translate(0,0)"/>
<path d="" fill="#41423F" transform="translate(0,0)"/>
<path d="" fill="#434342" transform="translate(0,0)"/>
<path d="" fill="#636463" transform="translate(0,0)"/>
<path d="" fill="#414040" transform="translate(0,0)"/>
<path d="" fill="#424040" transform="translate(0,0)"/>
<path d="" fill="#3D3E40" transform="translate(0,0)"/>
<path d="" fill="#423F3E" transform="translate(0,0)"/>
<path d="" fill="#423F3F" transform="translate(0,0)"/>
<path d="" fill="#42413E" transform="translate(0,0)"/>
<path d="" fill="#41413D" transform="translate(0,0)"/>
<path d="" fill="#403E3D" transform="translate(0,0)"/>
<path d="" fill="#423F3F" transform="translate(0,0)"/>
<path d="" fill="#3F3D3F" transform="translate(0,0)"/>
<path d="" fill="#413D3D" transform="translate(0,0)"/>
<path d="" fill="#403F3C" transform="translate(0,0)"/>
<path d="" fill="#40403F" transform="translate(0,0)"/>
<path d="" fill="#413D3F" transform="translate(0,0)"/>
<path d="" fill="#403D3D" transform="translate(0,0)"/>
<path d="" fill="#403E40" transform="translate(0,0)"/>
<path d="" fill="#403F3E" transform="translate(0,0)"/>
<path d="" fill="#403F3E" transform="translate(0,0)"/>
<path d="" fill="#414140" transform="translate(0,0)"/>
<path d="" fill="#403F3F" transform="translate(0,0)"/>
<path d="" fill="#3F403E" transform="translate(0,0)"/>
<path d="" fill="#41403E" transform="translate(0,0)"/>
<path d="" fill="#3C3B3B" transform="translate(0,0)"/>
<path d="" fill="#3D3B3C" transform="translate(0,0)"/>
<path d="" fill="#434340" transform="translate(0,0)"/>
<path d="" fill="#434343" transform="translate(0,0)"/>
<path d="" fill="#3D3A3D" transform="translate(0,0)"/>
<path d="" fill="#413E3D" transform="translate(0,0)"/>
<path d="" fill="#3C393A" transform="translate(0,0)"/>
<path d="" fill="#3F3F3E" transform="translate(0,0)"/>
<path d="" fill="#3F3C3D" transform="translate(0,0)"/>
<path d="" fill="#3C3C3B" transform="translate(0,0)"/>
<path d="" fill="#3D3D3F" transform="translate(0,0)"/>
<path d="" fill="#3F3B3C" transform="translate(0,0)"/>
<path d="" fill="#44433F" transform="translate(0,0)"/>
<path d="" fill="#3C3A3A" transform="translate(0,0)"/>
<path d="" fill="#3E3D3C" transform="translate(0,0)"/>
<path d="" fill="#3F3D3E" transform="translate(0,0)"/>
<path d="" fill="#3E403C" transform="translate(0,0)"/>
<path d="" fill="#3F3E3D" transform="translate(0,0)"/>
<path d="" fill="#3F423D" transform="translate(0,0)"/>
<path d="" fill="#3E3B3D" transform="translate(0,0)"/>
<path d="" fill="#3E3C3B" transform="translate(0,0)"/>
<path d="" fill="#3F3D3F" transform="translate(0,0)"/>
<path d="" fill="#3D3A3C" transform="translate(0,0)"/>
<path d="" fill="#3D3B3C" transform="translate(0,0)"/>
<path d="" fill="#413F40" transform="translate(0,0)"/>
<path d="" fill="#3A393A" transform="translate(0,0)"/>
<path d="" fill="#393A3A" transform="translate(0,0)"/>
<path d="" fill="#3C3D3D" transform="translate(0,0)"/>
<path d="" fill="#3C3B3B" transform="translate(0,0)"/>
<path d="" fill="#3F4041" transform="translate(0,0)"/>
<path d="" fill="#423F3E" transform="translate(0,0)"/>
<path d="" fill="#3F3D3B" transform="translate(0,0)"/>
<path d="" fill="#434141" transform="translate(0,0)"/>
<path d="" fill="#3C3A36" transform="translate(0,0)"/>
<path d="" fill="#3E3C3E" transform="translate(0,0)"/>
<path d="" fill="#323232" transform="translate(0,0)"/>
<path d="" fill="#424043" transform="translate(0,0)"/>
<path d="" fill="#413F3F" transform="translate(0,0)"/>
<path d="" fill="#3E3F3E" transform="translate(0,0)"/>
<path d="" fill="#3C3D3C" transform="translate(0,0)"/>
<path d="" fill="#393837" transform="translate(0,0)"/>
<path d="" fill="#42403D" transform="translate(0,0)"/>
<path d="" fill="#3A3A38" transform="translate(0,0)"/>
<path d="" fill="#3C3C3B" transform="translate(0,0)"/>
<path d="" fill="#3D3C3C" transform="translate(0,0)"/>
<path d="" fill="#3B3C3C" transform="translate(0,0)"/>
<path d="" fill="#3D3E3B" transform="translate(0,0)"/>
<path d="" fill="#3E3E3D" transform="translate(0,0)"/>
<path d="" fill="#3F3E3C" transform="translate(0,0)"/>
<path d="" fill="#3C3D3A" transform="translate(0,0)"/>
<path d="" fill="#40403F" transform="translate(0,0)"/>
<path d="" fill="#403E3D" transform="translate(0,0)"/>
<path d="" fill="#424241" transform="translate(0,0)"/>
<path d="" fill="#403D3E" transform="translate(0,0)"/>
<path d="" fill="#3D403D" transform="translate(0,0)"/>
<path d="" fill="#3D3F3F" transform="translate(0,0)"/>
<path d="" fill="#403D3A" transform="translate(0,0)"/>
<path d="" fill="#3E3F3F" transform="translate(0,0)"/>
<path d="" fill="#3B3A3C" transform="translate(0,0)"/>
<path d="" fill="#3D3D3C" transform="translate(0,0)"/>
<path d="" fill="#3F3F3E" transform="translate(0,0)"/>
<path d="" fill="#3D3D3C" transform="translate(0,0)"/>
<path d="" fill="#3E3E3D" transform="translate(0,0)"/>
<path d="" fill="#403D3E" transform="translate(0,0)"/>
<path d="" fill="#3C3B39" transform="translate(0,0)"/>
<path d="" fill="#3E3E3B" transform="translate(0,0)"/>
<path d="" fill="#393B3B" transform="translate(0,0)"/>
<path d="" fill="#3E3F38" transform="translate(0,0)"/>
<path d="" fill="#3E3D3A" transform="translate(0,0)"/>
<path d="" fill="#423E3D" transform="translate(0,0)"/>
<path d="" fill="#403C3B" transform="translate(0,0)"/>
<path d="" fill="#3E3D3B" transform="translate(0,0)"/>
<path d="" fill="#3E3C3C" transform="translate(0,0)"/>
<path d="" fill="#3F3E3E" transform="translate(0,0)"/>
<path d="" fill="#3C393A" transform="translate(0,0)"/>
<path d="" fill="#3D3C3C" transform="translate(0,0)"/>
<path d="" fill="#3B3D3D" transform="translate(0,0)"/>
<path d="" fill="#403B3B" transform="translate(0,0)"/>
<path d="" fill="#393637" transform="translate(0,0)"/>
<path d="" fill="#3C3B3C" transform="translate(0,0)"/>
<path d="" fill="#3D3F3E" transform="translate(0,0)"/>
<path d="" fill="#3C3D3B" transform="translate(0,0)"/>
<path d="" fill="#3F3F3B" transform="translate(0,0)"/>
<path d="" fill="#363634" transform="translate(0,0)"/>
<path d="" fill="#38373B" transform="translate(0,0)"/>
<path d="" fill="#3E3C3C" transform="translate(0,0)"/>
<path d="" fill="#3E3B3B" transform="translate(0,0)"/>
<path d="" fill="#3B3839" transform="translate(0,0)"/>
<path d="" fill="#3C3B3B" transform="translate(0,0)"/>
<path d="" fill="#3D3C3C" transform="translate(0,0)"/>
<path d="" fill="#3B3B3A" transform="translate(0,0)"/>
<path d="" fill="#3F3E3A" transform="translate(0,0)"/>
<path d="" fill="#413C3D" transform="translate(0,0)"/>
<path d="" fill="#3C3C38" transform="translate(0,0)"/>
<path d="" fill="#3E3E3E" transform="translate(0,0)"/>
<path d="" fill="#3C3D3C" transform="translate(0,0)"/>
<path d="" fill="#3E3D3E" transform="translate(0,0)"/>
<path d="" fill="#403F3D" transform="translate(0,0)"/>
<path d="" fill="#403E3C" transform="translate(0,0)"/>
<path d="" fill="#3D3C3C" transform="translate(0,0)"/>
<path d="" fill="#3F3C3D" transform="translate(0,0)"/>
<path d="" fill="#404241" transform="translate(0,0)"/>
<path d="" fill="#3E3D3E" transform="translate(0,0)"/>
<path d="" fill="#3D3D3E" transform="translate(0,0)"/>
<path d="" fill="#3E3D3C" transform="translate(0,0)"/>
<path d="" fill="#3F3E3E" transform="translate(0,0)"/>
<path d="" fill="#3F3D3D" transform="translate(0,0)"/>
<path d="" fill="#3D3C3B" transform="translate(0,0)"/>
<path d="" fill="#3F3E3D" transform="translate(0,0)"/>
<path d="" fill="#3E3D3C" transform="translate(0,0)"/>
<path d="" fill="#3E403C" transform="translate(0,0)"/>
<path d="" fill="#3C3A3B" transform="translate(0,0)"/>
<path d="" fill="#3E3F3D" transform="translate(0,0)"/>
<path d="" fill="#3F4040" transform="translate(0,0)"/>
<path d="" fill="#3F3D3C" transform="translate(0,0)"/>
<path d="" fill="#3D3C3D" transform="translate(0,0)"/>
<path d="" fill="#3F3C3A" transform="translate(0,0)"/>
<path d="" fill="#3D3C3B" transform="translate(0,0)"/>
<path d="" fill="#3F403C" transform="translate(0,0)"/>
<path d="" fill="#3E3E3D" transform="translate(0,0)"/>
<path d="" fill="#3F3C3E" transform="translate(0,0)"/>
<path d="" fill="#3E3E3F" transform="translate(0,0)"/>
<path d="" fill="#3F3C3D" transform="translate(0,0)"/>
<path d="" fill="#3E3E3C" transform="translate(0,0)"/>
<path d="" fill="#3F403C" transform="translate(0,0)"/>
<path d="" fill="#3C3837" transform="translate(0,0)"/>
<path d="" fill="#403F3F" transform="translate(0,0)"/>
<path d="" fill="#3C3B3B" transform="translate(0,0)"/>
<path d="" fill="#403B3E" transform="translate(0,0)"/>
<path d="" fill="#3F403F" transform="translate(0,0)"/>
<path d="" fill="#393939" transform="translate(0,0)"/>
<path d="" fill="#413F41" transform="translate(0,0)"/>
<path d="" fill="#3C393C" transform="translate(0,0)"/>
<path d="" fill="#3D3C3B" transform="translate(0,0)"/>
<path d="" fill="#424040" transform="translate(0,0)"/>
<path d="" fill="#3C3B3A" transform="translate(0,0)"/>
<path d="" fill="#3E3D3C" transform="translate(0,0)"/>
<path d="" fill="#413F3C" transform="translate(0,0)"/>
<path d="" fill="#373636" transform="translate(0,0)"/>
<path d="" fill="#3F3F3E" transform="translate(0,0)"/>
<path d="" fill="#3F3F3C" transform="translate(0,0)"/>
<path d="" fill="#3D3C3C" transform="translate(0,0)"/>
<path d="" fill="#3F3F3E" transform="translate(0,0)"/>
<path d="" fill="#3D3A39" transform="translate(0,0)"/>
<path d="" fill="#3F3C3B" transform="translate(0,0)"/>
<path d="" fill="#3D3A3B" transform="translate(0,0)"/>
<path d="" fill="#3E3C3C" transform="translate(0,0)"/>
<path d="" fill="#3B3B3C" transform="translate(0,0)"/>
<path d="" fill="#3F3F41" transform="translate(0,0)"/>
<path d="" fill="#3B3B3C" transform="translate(0,0)"/>
<path d="" fill="#3B3D3B" transform="translate(0,0)"/>
<path d="" fill="#3D3C3B" transform="translate(0,0)"/>
<path d="" fill="#404240" transform="translate(0,0)"/>
<path d="" fill="#393937" transform="translate(0,0)"/>
<path d="" fill="#3E3B3B" transform="translate(0,0)"/>
<path d="" fill="#403F41" transform="translate(0,0)"/>
<path d="" fill="#3E3E3D" transform="translate(0,0)"/>
<path d="" fill="#38383A" transform="translate(0,0)"/>
<path d="" fill="#3D3B3A" transform="translate(0,0)"/>
<path d="" fill="#3B3C39" transform="translate(0,0)"/>
<path d="" fill="#3A373A" transform="translate(0,0)"/>
<path d="" fill="#3F3C3C" transform="translate(0,0)"/>
<path d="" fill="#484745" transform="translate(0,0)"/>
<path d="" fill="#3D3B3D" transform="translate(0,0)"/>
<path d="" fill="#393736" transform="translate(0,0)"/>
<path d="" fill="#3B3B38" transform="translate(0,0)"/>
<path d="" fill="#403D3B" transform="translate(0,0)"/>
<path d="" fill="#3F3B3B" transform="translate(0,0)"/>
<path d="" fill="#3C3A3A" transform="translate(0,0)"/>
<path d="" fill="#3B3B3A" transform="translate(0,0)"/>
<path d="" fill="#413E40" transform="translate(0,0)"/>
<path d="" fill="#3E3D3C" transform="translate(0,0)"/>
<path d="" fill="#3A393A" transform="translate(0,0)"/>
<path d="" fill="#3F413F" transform="translate(0,0)"/>
<path d="" fill="#3A3B3A" transform="translate(0,0)"/>
<path d="" fill="#41403E" transform="translate(0,0)"/>
<path d="" fill="#41413E" transform="translate(0,0)"/>
<path d="" fill="#393C3A" transform="translate(0,0)"/>
<path d="" fill="#3F403E" transform="translate(0,0)"/>
<path d="" fill="#393C3A" transform="translate(0,0)"/>
<path d="" fill="#353433" transform="translate(0,0)"/>
<path d="" fill="#3C393A" transform="translate(0,0)"/>
<path d="" fill="#424140" transform="translate(0,0)"/>
<path d="" fill="#363637" transform="translate(0,0)"/>
<path d="" fill="#39383A" transform="translate(0,0)"/>
<path d="" fill="#403D3D" transform="translate(0,0)"/>
<path d="" fill="#40403F" transform="translate(0,0)"/>
<path d="" fill="#3E3B3B" transform="translate(0,0)"/>
<path d="" fill="#383836" transform="translate(0,0)"/>
<path d="" fill="#3E3E3B" transform="translate(0,0)"/>
<path d="" fill="#3B393A" transform="translate(0,0)"/>
<path d="" fill="#3A3B3B" transform="translate(0,0)"/>
<path d="" fill="#333231" transform="translate(0,0)"/>
<path d="" fill="#383737" transform="translate(0,0)"/>
<path d="" fill="#3D3A3A" transform="translate(0,0)"/>
<path d="" fill="#3B393A" transform="translate(0,0)"/>
<path d="" fill="#3F403F" transform="translate(0,0)"/>
<path d="" fill="#423F3F" transform="translate(0,0)"/>
<path d="" fill="#3E3E3C" transform="translate(0,0)"/>
<path d="" fill="#3A3A39" transform="translate(0,0)"/>
<path d="" fill="#3B3C3E" transform="translate(0,0)"/>
<path d="" fill="#40413F" transform="translate(0,0)"/>
<path d="" fill="#423F3F" transform="translate(0,0)"/>
<path d="" fill="#373636" transform="translate(0,0)"/>
<path d="" fill="#3B3C3A" transform="translate(0,0)"/>
<path d="" fill="#3B3C39" transform="translate(0,0)"/>
<path d="" fill="#3B3C3D" transform="translate(0,0)"/>
<path d="" fill="#3F3F3E" transform="translate(0,0)"/>
<path d="" fill="#3B3E3B" transform="translate(0,0)"/>
<path d="" fill="#3F3E3F" transform="translate(0,0)"/>
<path d="" fill="#40413E" transform="translate(0,0)"/>
<path d="" fill="#3D3D3D" transform="translate(0,0)"/>
<path d="" fill="#41403F" transform="translate(0,0)"/>
<path d="" fill="#3E3B3B" transform="translate(0,0)"/>
<path d="" fill="#403F3E" transform="translate(0,0)"/>
<path d="" fill="#414040" transform="translate(0,0)"/>
<path d="" fill="#41423D" transform="translate(0,0)"/>
<path d="" fill="#3E393B" transform="translate(0,0)"/>
<path d="" fill="#414141" transform="translate(0,0)"/>
<path d="" fill="#3C3C3D" transform="translate(0,0)"/>
<path d="" fill="#3D3B3C" transform="translate(0,0)"/>
<path d="" fill="#40403E" transform="translate(0,0)"/>
<path d="" fill="#3C3D3A" transform="translate(0,0)"/>
<path d="" fill="#626262" transform="translate(0,0)"/>
<path d="" fill="#404040" transform="translate(0,0)"/>
<path d="" fill="#3E3D3D" transform="translate(0,0)"/>
<path d="" fill="#3C3D3B" transform="translate(0,0)"/>
<path d="" fill="#3C3D39" transform="translate(0,0)"/>
<path d="" fill="#3E3C3C" transform="translate(0,0)"/>
<path d="" fill="#3C3738" transform="translate(0,0)"/>
<path d="" fill="#3D3C3A" transform="translate(0,0)"/>
<path d="" fill="#3A3739" transform="translate(0,0)"/>
<path d="" fill="#413F40" transform="translate(0,0)"/>
<path d="" fill="#404140" transform="translate(0,0)"/>
<path d="" fill="#413F3E" transform="translate(0,0)"/>
<path d="" fill="#363432" transform="translate(0,0)"/>
<path d="" fill="#3C3A39" transform="translate(0,0)"/>
<path d="" fill="#3B3839" transform="translate(0,0)"/>
<path d="" fill="#3E3C3D" transform="translate(0,0)"/>
<path d="" fill="#3E3D3E" transform="translate(0,0)"/>
<path d="" fill="#3C3D3D" transform="translate(0,0)"/>
<path d="" fill="#3D3D3E" transform="translate(0,0)"/>
<path d="" fill="#3E3E3D" transform="translate(0,0)"/>
<path d="" fill="#3E3C3D" transform="translate(0,0)"/>
<path d="" fill="#3E3C3B" transform="translate(0,0)"/>
<path d="" fill="#3A3838" transform="translate(0,0)"/>
<path d="" fill="#413F41" transform="translate(0,0)"/>
<path d="" fill="#444043" transform="translate(0,0)"/>
<path d="" fill="#444443" transform="translate(0,0)"/>
<path d="" fill="#40403E" transform="translate(0,0)"/>
<path d="" fill="#3B3939" transform="translate(0,0)"/>
<path d="" fill="#3F413F" transform="translate(0,0)"/>
<path d="" fill="#3D3D3E" transform="translate(0,0)"/>
<path d="" fill="#3F3D3C" transform="translate(0,0)"/>
<path d="" fill="#3F3B3C" transform="translate(0,0)"/>
<path d="" fill="#413F3F" transform="translate(0,0)"/>
<path d="" fill="#403E3E" transform="translate(0,0)"/>
<path d="" fill="#413E3E" transform="translate(0,0)"/>
<path d="" fill="#3A3B39" transform="translate(0,0)"/>
<path d="" fill="#3F403F" transform="translate(0,0)"/>
<path d="" fill="#3D3C3B" transform="translate(0,0)"/>
<path d="" fill="#403E3E" transform="translate(0,0)"/>
<path d="" fill="#3E3C3C" transform="translate(0,0)"/>
<path d="" fill="#403A37" transform="translate(0,0)"/>
<path d="" fill="#474444" transform="translate(0,0)"/>
<path d="" fill="#414242" transform="translate(0,0)"/>
<path d="" fill="#3F3C3A" transform="translate(0,0)"/>
<path d="" fill="#454240" transform="translate(0,0)"/>
<path d="" fill="#424240" transform="translate(0,0)"/>
<path d="" fill="#434241" transform="translate(0,0)"/>
<path d="" fill="#3F403C" transform="translate(0,0)"/>
<path d="" fill="#43423E" transform="translate(0,0)"/>
<path d="" fill="#3F3F41" transform="translate(0,0)"/>
<path d="" fill="#423F41" transform="translate(0,0)"/>
<path d="" fill="#413D3D" transform="translate(0,0)"/>
<path d="" fill="#433F42" transform="translate(0,0)"/>
<path d="" fill="#454343" transform="translate(0,0)"/>
<path d="" fill="#404242" transform="translate(0,0)"/>
<path d="" fill="#404141" transform="translate(0,0)"/>
<path d="" fill="#414142" transform="translate(0,0)"/>
<path d="" fill="#3E3D3B" transform="translate(0,0)"/>
<path d="" fill="#3E3E3E" transform="translate(0,0)"/>
<path d="" fill="#444544" transform="translate(0,0)"/>
<path d="" fill="#424241" transform="translate(0,0)"/>
<path d="" fill="#434241" transform="translate(0,0)"/>
<path d="" fill="#42413F" transform="translate(0,0)"/>
<path d="" fill="#3E3F3A" transform="translate(0,0)"/>
<path d="" fill="#434341" transform="translate(0,0)"/>
<path d="" fill="#413D3D" transform="translate(0,0)"/>
<path d="" fill="#403F41" transform="translate(0,0)"/>
<path d="" fill="#434341" transform="translate(0,0)"/>
<path d="" fill="#444442" transform="translate(0,0)"/>
<path d="" fill="#40423E" transform="translate(0,0)"/>
<path d="" fill="#464443" transform="translate(0,0)"/>
<path d="" fill="#3F3E3C" transform="translate(0,0)"/>
<path d="" fill="#424140" transform="translate(0,0)"/>
<path d="" fill="#494A49" transform="translate(0,0)"/>
<path d="" fill="#646462" transform="translate(0,0)"/>
<path d="" fill="#636363" transform="translate(0,0)"/>
</svg>
